<?xml version="1.0"?>
<svg xmlns:rdf="http://www.w3.org/1999/02/22-rdf-syntax-ns#" xmlns="http://www.w3.org/2000/svg" xmlns:cc="http://creativecommons.org/ns#" xmlns:dc="http://purl.org/dc/elements/1.1/" xmlns:svg="http://www.w3.org/2000/svg" id="svg3793" viewBox="0 0 611 432" version="1.1">
  <path id="Sele&#xE7;&#xE3;o" d="m296 399v2c-5.33-0.12-9.94-0.24-14-4l14 2zm51 4c0.76-6.98 4.58-12.66 10-17 1.89 5.94-4.94 14.47-10 17zm-130.51-9c4.16 6.27 6.38 11.34 14.51 12l-1-3c3.74-2.06 3.93-2.95 5-7-8.85 1.78-11.26 4.18-16-5 5.03 2.77 5.63 3.42 11 1-6.11-5.49-10.07-4.11-17-7-0.69 3.71 1.5 5.98 3.49 9zm75.4-13.59l3.11 1.59c-7.11 1.25-17.1 0.49-23-4 0 0 19.89 2.41 19.89 2.41zm97.11 12.59c0.76-6.73 6.03-13.57 10-19 1.36 5.47-5.28 16.35-10 19zm46-19l-2 17 5.27-11s4.73-8 4.73-8l-8 2zm-99-4.09l12-0.91v2l-23 2.14c-5.02 0.76-11.21 1.76-16 0 8.94-2.87 17.85-2.6 27-3.23zm-129-8.91c3.24 6.51 16.81 16.2 22 7-13.14-0.76-10.97-9.99-22-7zm82-3.45l26 8.45c-13.6 0-24.47-3.34-37-8.45-5.16-2.11-10.92-4.09-13-9.55 0 0 24 9.55 24 9.55zm-238-8.55c-2.21 6.53-8.75 14.27-14 18.68l-7.89 6.41c-2.68 2.75-2.93 4.06-4.89 6.78-1.97 2.74-2.97 2.73-4.22 6.13l4-1c1.17 2.16 2 3.92 4.11 5.4 5.3 3.75 15.34-0.25 19.85-3.81 0 0 6.21-6.42 6.21-6.42 3.33-3.35 4.66-3.68 6.83-8.17l-4-4c7.41 0.61 11.71-7.16 6-11l-2 4c-3.14-6.93-0.92-11.25-10-13zm440-4c-3.49 0.27-3.37 0.32-6-2 3.57-0.45 3.39-0.48 6 2zm-266-3l1 1v-1h-1zm10-4l1 1v-1h-1zm258 0l-4-2 4 2zm-55 2c-4.24-0.71-5-0.85-8-4 4.1 0.78 4.99 1.04 8 4zm62 5c4.71-2.83 4.59-7.91 5-13-3.52 4.42-4.69 7.37-5 13zm-137-9l-5-5c0.89 3.23 2.08 3.59 5 5zm-155 0c10.04-1.33 18.48-2.33 26-10-6.54 1.18-20.87 5.92-26 10zm157-16.37c4.46 0.44 7.43-0.59 11.89 1.97 2.68 1.54 7.15 8.84 3.51 11.27-2.45 1.64-5.81-2.21-7.49-3.59-9.35-7.72-15.02-5.95-21.91-11.28 8.92 0.03 7.71 1.01 14 1.63zm2 30.92c-4.99 2.47-9.69 0.75-15 1.98-2.51 0.58-5.51 2.34-7.96 1.82l-18.04-10.67-28-15.28c-3.05-1.82-14.25-9.87-16.79-9.81-3.52 0.09-7.87 11.37-9.52 14.41-7.25 13.38-10.72 16.56-19.89 28-3.56 4.44-8.47 9.07-10.8 14 8.49 4.35 17.89 6.36 27 8.92 6.29 1.77 5.58 2.98 13 3.08 14.39 0.19 15.18-2.16 28-5.11 0 0 22-4.43 22-4.43s19-2.37 19-2.37c6.68-0.46 8.43 0.95 15-2.09l-19-16c6.97 1.43 9.02 2.89 15 6.61 2.4 1.5 6.26 4.67 9 4.69 3.83 0.03 8.08-4.59 11-6.77 4.36-3.27 7.14-3.71 12-5.53v-2l-4-8-4 2c-4.02-10.41-12.57-0.14-18 2.55zm-286.41-22.55c-1.13 6.76-2.17 17.23-5.59 23-1.45-6.1 2.47-27.94 5-34 2.47 4.01 1.33 6.55 0.59 11zm151.41 37.56c3.96-0.5 7.48-5.76 10.09-8.56 6.34-6.81 12.24-13.47 17.76-21 3.12-4.26 5.81-7.56 6.11-13 0.21-3.93 0.39-9.16-5-8.62-5.11 0.51-9.1 4.15-12.96 7.12l-18 12.82-33 12.68 4 5 10-4.05 15-8.95v3c5.58-2.5 6.32-5.08 11-4 7.22-9.45 5.4-6.27 14-12.49 3.9-2.81 4.06-4.06 9-5.51-2.98 5.53-5.48 8.55-12 9-5.69 9.28-9.64 13.5-19 19.29-8.28 5.12-13.88 2.25-15 11.71 8.45-0.47 12.8 6.21 18 5.56zm-131.88-40.57s-7.09 9.05-7.09 9.05l-1.03 8.96c4.96-2.57 11.61-15.53 12.96-21 0.59-2.61 0.2-5.35 0-8l-4.84 10.99zm-17.12-8.99l3-12c1.77 4.67-0.38 8.12-3 12zm226 8c-7.93-4.08-18.04-11.95-22-20l1-1c6.51 3.49 18.93 13.93 21 21zm-27-23l1-6c-1.67 2.59-1.95 3.02-1 6zm-109.41 3l3.41 18c-6.5-4.18-5.42-11.51-6.09-18-0.67-4.91-2.09-5 0-10 3.26 3.7 2.11 5.42 2.68 10zm275.78-0.05c-4.53 2.69-8.74-6.69-4.77-11.8 8.34-1.59 9.69 8.87 4.77 11.8zm-51.37-5.21l7-4.21c3.66-2.03 16.26-7.19 20-6.53-9.81 5.64-15.67 7.33-24.91 14.74-4.13 3.31-6.25 7.37-12.09 5.26l4-1v-2s-9-1-9-1l15-5.26zm47.91-12.14c-7.52 6-13.15 8.27-12.89 19.4 0.15 6.51 4.15 15.14 11.97 14.39 2.97-0.29 4.61-2.64 7.18-3.85 2.99-1.4 4.62-0.97 7.44-3.88 4.11-4.25 2.63-8.06 3.25-10.57 0.67-2.67 2.65-3.84 3.15-6.18 0.39-1.82-0.62-4.99-1.01-6.91l-10-1 1-6c-5.89-1-5.93 1.29-10.09 4.6zm-376.91 11.13c8.64-7.3 19.45-19.65 30-22.73l-29 26.99c-4.24 3.32-8.45 6.97-14 7.01 2.41-4.04 9.13-8 13-11.27zm503-23.73l1 1v-1h-1zm-309-4c-4.07 1.78-18.19 6.76-22 6 5.98-2.57 15.5-8.16 22-6zm-6 20.52l-11.91-3.35-6.18-2.96c-9.44-2.86-53.28-10.39-63.91-11.49h-9c-8.3-0.92-20.76-6.38-37-7.54-12.7-0.9-20.54 6.8-28.08 15.82-12.36 14.78-25.56 31.7-32.23 50-1.47 4.05-5.25 16.1-4.25 19.96 0.84 3.2 4.83 6.89 8.35 5.68 3.87-1.33 8.7-9.96 10.21-13.64 0 0 3 1 3 1l5-13c4.83-0.3 5.58-2.91 7.41-7l7.11-20c0.67-3.27 0.18-9.14 3.8-10.83 5.1-2.38 3.25 5.84 2.78 7.83v11c-0.05 4.21 0.17 4.95 0.9 9 1.94-0.4 4.16-0.77 5.95-1.65 9.76-4.8 2.68-19.83 2.37-22.35-0.27-2.09 0.16-3.07 0.68-5 0 0 2.45 6.83 2.45 6.83l2.84 5.26s1.73 5.32 1.73 5.32l2.98 1.59c-0.24-10.59-2.99-9.56-5-18 7.03 5.63 7.22 11.89 11.36 19 4.05 6.96 7.46 7.96 13.55 11.92 4.09 2.66 3.94 3.78 9.09 5.08-1.91-6.56-5.81-8.6-9.32-14-5.09-7.84-2.62-11.25-4.36-17-1.27-4.21-3.71-6.33-3.32-11 2.68 7.67 5.89 12.07 9.51 19 0 0 3.04 7 3.04 7 3.33 6.72 9.35 12.76 15.17 17.34 2.95 2.33 7.71 6.75 11.28 7.6 3.51 0.84 16.28-2.6 20-4 3.74-1.41 10.83-4.4 14-6.56l6-4.25 10-3.91c8.57-4.09 9.05-6.23 14-9.22 2.71-1.64 4.38-1.86 7-3.81-4.12-0.64-10.99-0.67-15 0-12.39 2.89-32.62 18.79-47 23.84-3.27-3.61-7.84-0.45-12 0-2.85 0.37-4.36-0.23-7-1.03v-2l11-2.01 13-8.54 11-5.87c13.71-7.73 21.68-13.77 38-13.58 6.35 0.08 13.18 1.49 19 4.04l8.98 4.82c5.34 1.85 5-3.28 5.02-6.86v-4c-0.03-1.92-0.01-4.16-0.74-5.96-4.63-11.54-21.5-5.23-30.26-5.04v2c10.21 0.09 18.1 1.85 25 10-5.99-1.08-10.35-3.62-16-5.48zm20-27.65c11.79-1.65 18.1 0.8 21 13.13-7.81-1.34-5.79-6.59-13-8.57-5.59-1.53-14.14 0.9-20-1.43 4.73-2.01 6.98-2.43 12-3.13zm274-0.46c-3.51-1.74-6.08-3.59-10-2.41l24 17c-0.99-8.57-6.95-11.08-14-14.59zm-18.15 3.01c4.57 4.52 10.49 8.59 14.15 13.58 2.25-0.84 5.11-1.82 3.83-4.94-1.02-2.5-5.54-4.88-7.83-6.26l-15-10.8c-0.41 4.12 2.11 5.72 4.85 8.42zm-90.85-7.09l-17 10.68c-6.27 3.05-7.89 0.75-16 4.8-9.25 4.61-13.87 10.52-22 15.75-9.32 6-21.81 10.81-29 19.44 11.23 2.99 16.59 0.48 27 0 1.42 7.05 8.21 7.06 9 17 10.96-3.95 9.39-5.72 13.13-13 0 0 4.87-9 4.87-9-9.03 4.99-5.49 13.76-15 16 3.99-5.47 10.08-16.6 15.04-20.37 11.09-8.41 25.96-9.27 29.96-25.63-10.11 0.47-19.24 3.23-26 11 5.57-12.59 9.55-9.03 19.83-15.4 5.41-3.35 5.99-6.43 13.17-7.6-4.93 2.37-7.52 3.64-11 8 11.52-0.25 21.27-4.93 26-16-4.46 0.37-18.28 2.57-22 4.33zm-56.29 21.67c-6.9 7.83-10.34 6.27-13.71 13l14-7.07c2.87-1.72 17.16-14.97 19.96-17.93 5.4-5.72 10.26-12.94 8.04-21-11.52 8.97-18.78 22.21-28.29 33zm173.29-43c-2.62 4.61-3.95 5.51-9 7 1.19-5.59 2.96-8.23 9-7zm-121 6.78c7.42-3.96 27.02-10.95 35-7.78l-14 6.25-14 3.8-15 5.95c1.75-4.88 3.51-5.82 8-8.22zm6-11.7l-8 1.57c-6.4 0.86-10.93-3.94-15.7 0-4.16 3.34-3.89 17.74-2.3 22.35 3.58-6.22 6.65-13.82 14-16-4.42 6.63-15.53 21.01-17 28 12.92-3.03 18.99-11.64 26-14.86 4.86-2.24 12.8-1.57 18-2.9 9.91-2.54 9.93-4.98 17-9.66 4.56-3.03 6.14-1.47 8-7.58-13.95-4.03-25.89-3.39-40-0.92zm-120.56-0.08l-5.21-12c-1.96-5.61-0.92-11.01-6.23-14-5.87 8.2-12.55 12.11-20 18.32l-9 7.76-8.99 5.96-10.02 9.06c-9.55 6.86-23.81 15.69-30.99 24.9 14.35-1.49 28.58-17.11 44-17l-31 16.1-19 6.9 13-1c0.93 2.6 3.5 2.06 6 1.83l15-1.83c13.48-0.15 20.98-0.79 29 12 4.09-2.48 4.45-3.28 5-8 9.67-2.84 12.16-13.46 15-22 0 0-3 1-3 1s2.49-5 2.49-5l0.51-30h2l1.89 22-3.89 12c11.2-4.39 16.56-15.41 13.44-27zm181.56-34s-19 4-19 4c3.3-5.07 13.66-6.12 19-4zm-174.79 7.33l7.79 5.67c-9.29 1.79-17.02-4.8-18-14 6.51 1.93 5.78 4.3 10.21 8.33zm29.79-5.33l-4-7c2.81 2.19 4.65 3.21 4 7zm-22-13c-0.68 4.96-3.25 9.83-6 14-6.25-7.22-1.41-10.66 6-14zm224-28s-21-4-21-4c5.79 0 17.4-1.17 21 4zm-65-3l1 1v-1h-1zm-62-13c-4.19-1.55-7.64-3.07-10-7 5.91 0.35 7.97 1.21 10 7zm21-15c-1.93 5.41-3.73 9.04-8 13l6-13h2zm14.52 14.83c2.11-2.89 1.19-4.85 2.66-7.83 1.59-3.21 5.96-7.14 8.82-9.32 2.2-1.67 5.96-4.24 8.73-3.92 4.87 0.52 2.47 7.08 0 9.39-5.45 4.68-9.31 0.61-16.73 9.85 4.3-0.56 6.28-1.7 10 1l-27 16c6.37-10.04 10.94-11.64 13.52-15.17zm-5.43-50.4c-2.96 0.88-4.34 3.01-5.77 5.59l-6.51 16.98c-1.45 3.83-3.14 6.96-1.81 11 5-11.19 14.22-22.01 25-28.03l7-2.97c-7.62-0.26-11.26-4.54-17.91-2.57zm4.91-40.43h5c-5.21 6.51-5.66 2.84-12 1 3.03 8.86 7.61 7.58 11.4 13.09 2.01 2.93 1.31 5.69 2.23 8.91 1.71 5.96 5.4 8.35 5.37 15 4.32 2.09 18.69 7.27 23 7-4.53-4.63-3.46-7.92 3-9l-2 7c2.72-2.18 5.81-5.1 5.36-9-0.55-4.72-6.32-7.03-9.56-11.17-3.8-4.86-4.18-11.12-6.24-14.78-2.64-4.69-9.38-8.33-14.56-9.05l1 3c-4.75-3.01-6.63-5.09-12-2zm49.95-2c2.22-3.53 3.95-7.24 8.09-8.84 5.17-1.99 18.68 0.9 23.96 2.84l-9.37 11.98-4.8 4.41-9.83-8.39 4 8-10-8c0 15.22 0.86 13.24 4 27l15-4 1 1c-6.35 5.93-12.87 3.68-20 6l-5-20c-3.53 3.62-4 4.89-9 6 2.16-5.07 8.45-12.43 11.95-18zm55.05-12c-1.69 3.74-1.91 3.97-1 8 0 0 3-8 3-8h-2zm-3.57-10c-2.5 5.32-7.62 8.38-5.43 15 8.04-12.76 14.86-15.14 8-25l-2.57 10zm-16.69-5s-0.73-9-0.73-9c-0.05-2.37-0.45-7.4 1.59-8.97 2.54-1.96 7.85 0.26 10.4 1.41 4.46 2.02 13.34 10.2 15.35 14.6 1.03 2.25 1.18 4.53 0.97 6.96-0.61 6.99-3.16 8.54-4.12 14l-2.09 21c-1.73 4.5-5.2 5.94-6.51 9.17-1.32 3.24 0.5 5.99-3.03 10.83 0 0-19.57 19.99-19.57 19.99-1.91 2.31-5.86 5.79-5.3 8.96 0.25 1.42 1.53 3.05 2.23 4.33 5.1 9.44 4.63 6.27 10.03 13.72 1.68 2.31 3.88 6.56 7.08 6.71 3.3 0.15 6.4-4.34 13.96-3.6 14.6 1.43 4.58 17.29 5 24.89l2-4c-0.25 10.11-2.25 10.92-8.58 17.59-2.47 2.61-2.32 4.7-4.72 6.48-6.23 4.63-20.56 5.45-27.7 2.93 0.49 10.03 3.27 9.07 6.29 17 2.47 6.47 2.21 9.91 3.71 16 0 0 12.09-13.73 12.09-13.73l9.74-6.6 13.17-10.67c-1.45 6.85-6.03 10.36-11 14.93l-7.9 7.11-5.47 6.96c-3.07 3.72-7.01 6.77-10.63 9.95-4.65 4.07-9.55 8.39-16 8.05 2.78-5.41 7.71-7.4 8.21-11.99 0.3-2.81-1.3-5-4.25-4.74-1.61 0.14-14 4.78-15.96 5.73l15.71-1.61s2.29 2.61 2.29 2.61c-8.08 4.11-13.23 3-22 3 3.71 6.93 6.9 3.42 11.41 7.51 0 0 3.8 4.46 3.8 4.46 3.41 3.74 14.13 13.7 18.79 14.85 4 0.99 8.88-2.35 12-4.6 3.51-2.54 10.91-9.73 13.35-13.22 3.55-5.06 2.06-6.27 7.65-12-0.49 4.66-1.2 5.77-3 10-5.1 11.93-11.08 17.84-23 23l6 3c-6.67-0.06-10.97-0.9-17-3.98-4.94-2.53-8.18-6.14-14-6.02 5.73 5.21 19.06 14.66 27 13.89 4.25-0.41 7.41-3.22 11-5.28 10.35-5.94 21.45-21.13 24.96-32.61 1.67-5.46 1.61-8.74 2.48-14 0.9-5.48 3.15-9.25 2.24-15-2.16-13.58-9.44-23.51-12.64-34-1.25-4.08-2.91-10.86-2.04-15l7.31 19c3.43 7.5 7.98 15.74 9.37 24 1.82 10.83-0.45 15.28-1.51 25-0.91 8.43-0.1 9.56-4.06 18-2.64 5.63-14.3 22.68-18.35 28-1.82 2.39-8.51 8.86-8.73 11-0.32 3.08 4.87 6.85 6.87 9.01 4.12 4.47 6.7 9.09 8.1 14.99l-14-18c6.15 14.27 10.99 17.46 11 34-5.36 0.62-4.9 3.97-7.68 7.83-2.93 4.07-6.57 8.51-11.32 10.17 7.57-19.71 9.49-39.64-13-50 2.66 4.11 3.03 5.18 8 6-0.42 7.67-3.16 11.26-6.14 18-5.41 12.26-7.06 18.1-16.18 29l-19.47 19s-14.73 22-14.73 22c-4.67 5.94-11.72 11.71-17.48 16.72-9.78 8.51-18.82 19.24-32 22.42-6.06 1.41-6.18 0.03-11 0-4.42 0.04-8.4 2.11-12.91-0.88-2.04-1.35-3.48-3.41-5.26-5.05-2.84-2.62-10.94-8.05-14.83-7.44l-11 4.69-40 16.38c-9.21 2.42-15.01 0.52-24-0.56l-20-1.45c-9.18-1.02-12.26-3.25-20-5.34-13.22-3.57-13.57-0.66-27-9.49-5.44-3.58-12.19-7.08-17-11.18-1.58-1.34-4.48-4.57-6.73-4.2-2.1 0.35-3.68 4.61-4.36 6.38-2.42 6.35-1.33 18.01-9.91 18.67-5.89 0.45-11.01-6.35-13.91-10.67l-21.05-32c-2.56-4.63-4.68-11.05-2.04-16 3.8 11.24 9.03 9.97 14 21 0 0-3-1-3-1 8.27 10.87 22.79 10.61 35 9-5.85-5.77-11.69-0.67-22-5.9-7.03-3.57-12.15-8.74-16.7-15.1-2.21-3.08-4.24-8.23-7.4-10.12-3.22-1.8-6.52-0.36-9.9 0-3.97 0.3-8.34-0.32-12-1.88 1.96-0.83 7.97-2.94 8.38-5.18 0.45-2.47-4.63-5.33-6.38-6.54-9.53-6.55-7.82-2.87-15-5.08-3.38-1.04-6.86-3.63-10-5.42-10.11-5.79-9.4-10.27-15.01-9.48-3.11 0.44-15.3 7.71-17.19 9.97-1.6 1.92-3.21 6.3-7.01 10.73-10.81 12.61-18.87 13.01-24.75 16.41-6.08 3.52-4.67 6.62-13.04 7.59-0.12 13.7-2.88 14.16-12 23.01-8.89 8.63-12.32 12.16-25 11.99-1.99-0.03-4.11-0.02-6-0.74-5.45-2.08-10.65-8.39-7.49-14.26 5.3-9.86 10.73-11.37 17.45-18.04 3.34-3.32 4.55-5.45 7.27-8.96 1.9-2.43 7.21-7.32 7.32-10.04 0.08-1.8-3.79-9.46-4.74-11.96-2.68-7.13-5.67-26.36-1.81-33l1.72 10.91s2.89 5.26 2.89 5.26c1.54 3.46 2.58 9.24 1.39 12.83l-3-6c2.96 8.71 7.21 19.88 13 27 0.94-9.49-0.23-9.75 3.21-20 6.45-19.25 24.62-40.83 38.79-55h-3c5.5-6.64 15.67-10.67 24-12.26 3.37-0.64 5.6-1.69 9-0.74l-5 2c11.18 0.51 22.03 3.45 33 5.39 0 0 16 1.89 16 1.89l12 2.13c5.87 0.95 22.04 4 27 3.12 11.24-1.99 17.61-12.2 26-18.86l24-17.95 12-8.22 11-9.22 16.45-13.74c4.2-5.27-1.55-12.36 4.55-19.54l1 15c8.51-1.05 7.99 8.01 9.51 14 2.44 9.61 9.75 17.88 6.55 29-0.95 3.3-2.25 5.17-4.06 8 7.83-3.92 4.15-7.42 15-10-1.23 3.65-2.03 3.71-4.73 6.31-10.38 9.96-11.98 4.83-19.17 11.08-4.75 4.12-5.7 10.5-9.06 15.61-2.77 4.21-4.88 5.02-7.41 8.17l-7.63 10.83-4-4-0.63 11c-0.7 3.08-3.91 6.49-2.26 9.73 0.97 1.88 11.49 8.23 13.89 9.67l31 17.65c5.9 3.69 9.52 4.63 13 10.95 4.61-1.75 8.11-3.93 13-4.98 8.74-1.9 11.21 2.34 15-5.02-2.3-0.02-4.82 0.08-7-0.74l-19-13.26c-4.35-2.88-8.4-4.36-11-9l18 9-7-6.91-10-3.13-18-5.96 11 14-16-13.68-16-13.32c8.11 1.92 10.66 5.38 18 8.69 0 0 16 5.05 16 5.05 4.83 1.55 8.71 3.52 14 3.07 10.33-0.87 10.61-6.41 16.1-11.49 2.87-2.65 5.8-3.86 8.05-7.36 0 0 3.41-6.87 3.41-6.87 3.08-4.15 7.41-4.91 12.14-10.13l11.11-14.96 16.08-18c6.19-6.97 3.72-12.74 8.5-15.96 3.58-2.18 14.31 0.23 19.61 0l12-1.96h18l18.87 1.53c2.39-0.83 2.89-3.32 7.13-5.61-0.1 2.04-0.14 4.05-0.89 5.99-3.1 7.94-21.64 20.12-24.76 25.05-4.51 7.13-7.63 16.64-5.18 24.96 1.55 5.25 5.84 10.53 7.83 19-6.28 3.92-2.35 4.77-4.23 10-1.72 4.78-3.78 4.03-2.77 10 2.2-5.29 3.26-6.33 9-7 0.2-9.05 2.67-20.23 12-23.99 5.83-2.35 7.94 1.17 12.91-1.98 7.84-4.97 9.5-10.9 14.09-16.03-0.01 2.34 0.09 5.76-0.57 7.96-2.08 6.95-12.86 12.81-18.43 16.83l-9 8.21c1.03-6.76 4.25-8.54 9-13-12.39 3.54-15.03 11.15-16 23l2-2h1c-1.07 11.79-7.25 15.32-10.44 22l-2.56 8c7.73-2.29 8.04-7.57 11.27-14 4.06-8.1 12.87-16.78 22.73-15-2.87 5.51-5.68 5.37-9.96 9.21-4.26 3.81-9.97 11.47-12.04 16.79 3.62-1.68 5.14-2.48 9-1-6.29 3.58-21.28 10.14-28 6 5.26-4.77 3.45-6.57 6.27-12 3.38-6.5 6.77-6.45 7.73-15l-6 2c-0.07 7.33-10.55 11.18-17 10.79-3.13-0.19-7.29-1.58-10-3.15-3.92-2.28-7.59-6.56-9.56-10.64-1.51-3.13-1.39-6.62-3.75-7.87-3.39-1.8-8.29 2.64-10.69 4.63-9.51 7.88-6.44 8.58-10.41 13.03-2.61 2.92-5.99 3.74-7.99 6.42-1.55 2.07-1.81 6.06-2.6 8.79-4.18-6.79-4.94-15.88-10.34-21.9-7.88-8.78-13.31-3.87-17.66-3.36l-10-0.5c-3.89 0.59-7.02 3.39-10 5.76 3.65 1.76 16.33 8.33 18.94 10.53 4.93 4.12 3.77 7.3 7.28 8.87 1.33 0.59 17.19 1.21 20.33 3.61 2.98 2.27 0.76 5.51-0.55 7.99l11-3c-3.76-0.63-4.11-0.65-6-4l8.17 3.4 14.79-4.16 7.13 2.89h14.91v1.87c-9.26 0.75-15.83 4.23-25 2-1.92 6.73-13.43 26.57-18 32 2.19-16.23 10.81-22.33 13-34l-11 6.74c-9.92 5.1-15.04 4.95-23.58 13.55-4.42 4.45-7.29 8.13-10.16 13.71-2.84 5.52-3.5 9.8-8.26 14 0.37-6.77 2.94-13.03 6-19-3.88 1.67-8.69 3.8-12 6.39-4.9 3.84-5.63 6.74-12 8.61l2-7-15 5.53-8 2.16-8 1.31c14.35-9.84 20.27-9.11 33-15-9.31-0.78-32.69 6.65-43 9.1l-9 1.18c-16.82 2.15-18.34 2.27-35-3.28 8.5 8.28 7.98 6.12 17 11.45 8.86 5.24 12.23 8.5 23 8.55 5.22 0.02 21.71-1.3 25 0l-18 5c8 3.7 23 3.1 32 3 14.47-0.17 28.33-5.43 42-9.65l8-2.06 14-7.07c7.58-3.58 24.51-11.69 26.65-20.22 0.58-2.33-0.17-4.72-0.65-7 0 0-3 1-3 1-1.84-4.53-2.26-6.53 0-11l2 9c4.38-0.88 14.18-3.77 18-5.7l12-6.45c6.4-2.25 12.71-1.49 19 0 3.42-8.06 10.2 3.11 14.02 4.07 6.38 1.61 9.58-5.66 7.41-10.85-1.03-2.45-2.74-3.51-3.67-5.24-0.96-1.78-0.67-2.05-0.76-3.83 7.74-0.1 6.82-5.07 8.85-10 1.62-3.96 8.58-14.94 12.15-17l-4.33 16-5.08 23s-2.32 5.96-2.32 5.96l-8.1 7.36s-8.17 8.64-8.17 8.64l-9 7.36-15 13.68 8-13 10-14 1 4 4-6c-3.28-0.66-11.48-3.43-14-2.82-4.36 1.05-7.22 6.3-9.42 9.82-4.8 7.68-7.02 12.78-15.58 17l9.56-18.83 5.44-5.17c-2.92 0.67-7.41 1.72-9.69 3.7-1.92 1.66-2.53 4.21-3.85 6.3l-7 10c-3.4 5.86-2.78 8.18-8.46 13-1.61-6.05-1.03-6.72-5-12-0.81 6.15-1.55 15.75 6.04 18.12 2.49 1.1 6.24-0.18 9.96 0 4.27 0.16 5.45 1.25 10 0 6.76-2.42 9.74-5.73 15-9.86 8.02-6.31 6.67-3.33 15.91-13.26 4.53-4.86 6.63-8.9 12.09-13 0 0-3 7-3 7 8.86-9.37 12.83-19.23 19.92-29 10.02-13.81 17.56-21.35 25.81-37 6.16-11.68 7.74-15.58 7.27-29-6.6-0.54-6.67-3.12-12-7l-7.72 35-5.22 13c-2.3 6.07-3.06 13.4-9.06 17l3.99-13 5.01-18 2.12-4.01 2.88-14.99 3.19-17-5.57-9-6.27-12-5.35-15 2 14c-3.33-4.31-4.53-9.62-4.91-15-0.43-6.09 1.14-10.57-5.09-14 1.96 8.88-2.06 11.29-5.18 19-2.7 6.69-4.98 16.82-6.42 24-0.91 4.54-0.43 11.34-4.4 14 0.15-6.72 0.88-7.11 1.72-13 2.26-15.95 4.43-32.27 11.28-47-8.04 0.56-13.15 6-32 6l-4-6s16-4.45 16-4.45l10-0.55c-8.56-3.24-21.8-4.1-28-11 9.55 0 19.05 1.78 28 5.25l7 3.81c4.78 2.3 14.66 3.3 20 2.77 3.5-0.35 17.07-3.78 19.52-5.59 3.39-2.52-0.86-8.02-3.56-9.27-3.01-1.38-8.13 1.07-10.96 2.34-7.22 3.25-17.3 9.15-25 4.69 0 0 24-8.81 24-8.81 4.01-1.28 8.71-1.96 11.57-5.33 3.01-3.55 2.13-8.27 3.43-12.86 6.78 0.67 21.46-0.48 26.9-4.65 5.37-4.12 8.83-13.92 2.04-18.51-4.59-3.1-10.66-2.86-15.94-2.84-12.26 0.06-11.64 3.82-21 5.63l-8 0.54c-6.82 0.65-15.89 2.13-22 5.21l-8 5.08c-3.67 2.33-20.52 11.52-24 12.54 5.58-9.76 20.96-16.57 31-21-10.87-1.85-24.54 3.08-34 8.31-5.66 3.13-7.5 5.78-14 7.69 0.34-2.12 0.33-3.06 1.6-4.96 3.36-5.07 18.42-14.71 24.4-16.98 3.95-1.49 6.94-2.62 11-1.06l-6 3c7.79-1.03 7.03-1.43 15 0l-12-16 1-1h2s5.92 8 5.92 8c0.05-3.34-0.81-9.29 0-12 1.05-4.22 4.23-6.73 5.33-10 2.35-6.92-4.89-12.86-10.25-15.67-4.96-2.61-6.76-1.63-11-3.33 11.01-3.13 17.39 1.57 25 9-1.33-11.49-10.65-10.23-15-17l8 1-13-3c-0.93 4.03-3.89 4.84-7 7.29-3.98 3.12-8.48 6.94-11.82 10.71 0 0-6.36 8-6.36 8-9.73 11.21-13.34 14.03-16.92 29-1.7 7.11-0.25 9.29-0.82 13-0.76 5.05-3.49 6.08-1.08 16l7.53-27c3.89-10.32 17.88-27.85 27.47-33-2.27 5.79-7.06 11.29-12 15 2.42 4.57-2.18 8.28-4.85 12-5.24 7.32-15 24.89-11.14 33.96 1.35 3.18 3.44 4.48 6.01 6.55 2.42 1.96 5.63 5.52 8.98 4.92 3.93-0.7 21.11-15.04 30-13.43l-23 15.19c-3.12 1.91-7.19 4.9-11 4.01-2.11-0.5-5.15-2.64-7-3.87-5.27-3.49-15.84-8.79-16.85-15.33-0.75-4.82 0.39-11.18 0.98-16 0.32-2.7 0.95-4.99-1.46-6.92-1.84-1.47-9.1-3.49-11.67-4.22-4.96-1.4-17.17-3.08-22-1.7-9.44 2.69-18.73 17.73-23.6 25.84-1.98 3.3-9.08 14.34-9.23 17.54-0.11 2.41 2.71 5.36 3.95 7.5 2.21 3.78 3.02 6.74 3.88 10.96 0 0-3 1-3 1-0.28-4.75-0.41-5.73-4-9l2.19 9.79-9.19 7.34-6 5.48-7.73 5.6-6.27 10.79c-8.46-2.12-10.18-10.64-13.16-18-0.77-2.65-2.53-7 0-9.4 1.94-2.26 8.09-1.46 11.16-1.69 5.92-0.43 22.01-5.58 25.54-10.22 3.54-4.65-6.38-12.87-10.54-13.69-1.18-7.89-4.3-5.39-8.2-9.45-1.97-2.05-2.87-4.94-3.8-7.55-7.14 5.13-9.63 11.02-18 18.28-3.61 3.13-5.02 5.44-10 5.72l11.9-13.01s7.2-8.89 7.2-8.89l9.81-6.73 9.09-9.16 14-10.11 16-14.1c-2.12 11.12-14.41 18.24-23 24.43-2.75 1.98-10.37 7.57-10.67 10.99-0.25 3 6.82 11.11 8.67 14.58l6-4v7c4.77-11.92 10.9-21.87 20-31 2.82-2.83 6.33-6.74 10-8.3 7.51-3.19 19.52-1.59 25-2.7-6.25-3.7-3.71-5.91-14-9.77-4.55-1.71-10.26-2.6-13.57-6.44-4.27-4.96-2.2-13.11 3.61-14.46 3.54-0.82 7.11 0.98 9.96 2.89 4.51 3.03 6.57 5.67 12 7.69 5.08 1.88 18.32 3.43 21.43 6.17 1.21 1.07 1.1 1.6 1.57 2.92l-12-2.73c-3.58-0.2-7.1 1.47-10.91 0-2.42-0.94-11.03-8.2-21.09-9.27l1 4c9.93-0.86 15.35 8.22 24 12.74l11.18 4.28c2.08 1.7 0.61 4.16 0 5.98l5.82 3 16.34-48c2.59-7.39 3.88-14.77 12.66-15.13h14s-4.05-8.87-4.05-8.87c-3-7.1-2.07-9.35-8.05-16-2.5-2.78-8.65-7.57-7.24-11.79 1.11-3.35 8.11-5.76 11.34-5.94l7 0.64c7.48 0.52 15.98 1.25 20.64 8.27l5.84 12.54c3.25 4.73 7.89 7.18 9.95 11.32 5.52 11.08-5.1 14.62-4.93 22.05 0.09 3.96-3.34 13.23-4.7 17.91-0.62 2.1-2.06 5.3-1.64 7.42 1.64 8.2 16.43 14.57 21.84 20.58-7.73 1.48-14.76-5.02-20-10 3.22 5.05 12.48 15.78 19 15.01 9.05-1.08 16.17-11.87 26-8.01l-6 3.19c7.2-1.14 12.78-1.89 20 0l11 4.81c-3.44-3.25-6.84-6.07-11-8.38l-7-3.02c-6.44-3.03-19.29-10.75-23-16.6l17 9-14-15 1-4c-2.88-0.44-4.19-0.65-7 0.58-4.34 1.9-9.44 8.64-12 1.42l7-4.47c5.39-3.01 6.57-1.59 10-7.53l-17 6c1.9-6.12 6.55-7.05 12-9.42 7.07-3.09 15.16-6.43 20-12.58l-34 15c-0.85-6.74 5.84-7.8 11-10.42 0 0 22-9.58 22-9.58 7.51-3.22 11.69-3.12 12-12-8.71 1.93-17.3-1.4-22-9 6.43-1.47 11.16 2.49 17 5l-1.57-10 1.57-14 1 3h2c1.42-7.96 0.9-9.46-2-17l-5 9c0.03-9.29 1.6-11.34 1.74-16z"/>
  <metadata>
    <rdf:RDF>
      <cc:Work>
        <dc:format>image/svg+xml</dc:format>
        <dc:type rdf:resource="http://purl.org/dc/dcmitype/StillImage"/>
        <cc:license rdf:resource="http://creativecommons.org/licenses/publicdomain/"/>
        <dc:publisher>
          <cc:Agent rdf:about="http://openclipart.org/">
            <dc:title>Openclipart</dc:title>
          </cc:Agent>
        </dc:publisher>
        <dc:title>Jiu-jitsu</dc:title>
        <dc:date>2013-10-10T17:26:48</dc:date>
        <dc:description>Jiu jitsu</dc:description>
        <dc:source>http://openclipart.org/detail/184749/jiu-jitsu-by-joaolima-184749</dc:source>
        <dc:creator>
          <cc:Agent>
            <dc:title>joaolima</dc:title>
          </cc:Agent>
        </dc:creator>
        <dc:subject>
          <rdf:Bag>
            <rdf:li>Jiu-jitsu</rdf:li>
            <rdf:li>artes marciais</rdf:li>
            <rdf:li>artes marciales</rdf:li>
            <rdf:li>deporte</rdf:li>
            <rdf:li>deportes</rdf:li>
            <rdf:li>esporte</rdf:li>
            <rdf:li>jiu-jitsu</rdf:li>
            <rdf:li>jiujitsu</rdf:li>
            <rdf:li>martial arts</rdf:li>
            <rdf:li>sport</rdf:li>
            <rdf:li>&#xE6;&#x178;&#x201D;&#xE8;&#xA1;&#x201C;</rdf:li>
          </rdf:Bag>
        </dc:subject>
      </cc:Work>
      <cc:License rdf:about="http://creativecommons.org/licenses/publicdomain/">
        <cc:permits rdf:resource="http://creativecommons.org/ns#Reproduction"/>
        <cc:permits rdf:resource="http://creativecommons.org/ns#Distribution"/>
        <cc:permits rdf:resource="http://creativecommons.org/ns#DerivativeWorks"/>
      </cc:License>
    </rdf:RDF>
  </metadata>
</svg>
